<svg id="Layer_1" data-name="Layer 1" xmlns="http://www.w3.org/2000/svg" width="256" height="256" viewBox="0 0 256 256"><defs><style>.cls-1{fill:#fff;}</style></defs><rect class="cls-1" width="256" height="256" rx="40"/><path d="M101.2,170.61v9.48a3.91,3.91,0,0,1-3.9,3.9H25a3.91,3.91,0,0,1-3.9-3.9v-8.44a3.9,3.9,0,0,1,.9-2.49L66.06,116a3.9,3.9,0,0,0-3-6.39h-37a3.89,3.89,0,0,1-3.9-3.9V96.28a3.89,3.89,0,0,1,3.9-3.9H95.33a3.89,3.89,0,0,1,3.9,3.9v8.44a3.89,3.89,0,0,1-.89,2.48L54.39,160.33a3.9,3.9,0,0,0,3,6.38H97.3A3.91,3.91,0,0,1,101.2,170.61Z"/><path d="M234.7,97.49,207.28,181.3a3.9,3.9,0,0,1-3.7,2.69H186.47a3.9,3.9,0,0,1-3.71-2.7L163.48,122l-19.92,59.37a3.89,3.89,0,0,1-3.69,2.66h-17a3.89,3.89,0,0,1-3.7-2.68L91.61,97.49a3.89,3.89,0,0,1,3.7-5.11h13.76a3.88,3.88,0,0,1,3.71,2.71l19.81,61.68L153.3,95A3.89,3.89,0,0,1,157,92.38h14a3.9,3.9,0,0,1,3.71,2.7l20.07,62.21,20.45-62.23a3.89,3.89,0,0,1,3.7-2.68H231A3.89,3.89,0,0,1,234.7,97.49Z"/><rect x="92.19" y="58.01" width="20.32" height="16.74" rx="5"/></svg>